<svg width="22" height="16" viewBox="0 0 22 16" fill="none" xmlns="http://www.w3.org/2000/svg">
<path d="M21.4922 10.1489C21.4144 9.26102 21.4183 8.0625 21.2349 7.21211C21.1167 6.69071 20.8112 6.51746 20.6053 6.23843C20.2819 5.86028 19.9525 5.41383 19.6291 5.03568C18.4118 3.5664 17.1945 2.09712 15.9771 0.627839C16.1007 0.795257 16.1147 2.19868 16.1387 2.47187C16.1626 2.74506 16.1767 4.14848 16.3002 4.3159C16.9118 5.08468 17.5527 5.77268 18.1644 6.54147C12.1608 6.77105 6.122 7.01311 0.124405 7.31098C0.194791 7.286 0.335897 10.9682 0.441476 10.9307C5.89921 10.6836 11.3921 10.4241 16.8911 10.2328C16.2051 10.6875 15.496 11.2913 14.8692 12.0067C14.7696 12.1125 14.9297 13.112 15.0427 13.9874C15.0906 14.5337 15.1384 15.0801 15.1863 15.6265C15.2859 15.5207 15.4207 15.4025 15.5203 15.2967C15.5203 15.2967 15.5555 15.2842 15.5495 15.2159C16.6099 14.0649 17.7885 13.4353 18.9671 12.8057C19.6238 12.4318 20.2865 12.1261 20.9312 11.6156C21.3064 11.3416 21.4764 11.2108 21.5049 10.7078C21.5109 10.7761 21.546 10.7636 21.552 10.8319C21.5401 10.6953 21.5281 10.5587 21.5161 10.4221C21.5101 10.3538 21.4982 10.2172 21.4922 10.1489ZM19.8286 8.55632C19.7934 8.56881 19.7934 8.56881 19.7582 8.5813C19.7523 8.513 19.7463 8.44471 19.7463 8.44471C19.7463 8.44471 19.7875 8.50051 19.8286 8.55632Z" fill="white"/>
</svg>
